REM MD5 b2ec202582e3bd3a44e6b1d113488efd
FILE "Tomb Raider Trilogy - Demo Disc (Europe).bin" BINARY
  TRACK 01 MODE2/2352
    INDEX 01 00:00:00
  TRACK 02 AUDIO
    INDEX 00 10:29:61
    INDEX 01 10:31:61
  TRACK 03 AUDIO
    INDEX 00 12:51:04
    INDEX 01 12:53:04
  TRACK 04 AUDIO
    INDEX 00 16:09:47
    INDEX 01 16:11:47
REM LEADOUT 19:12:47
